<?xml version="1.0" standalone="no"?>
<!DOCTYPE svg PUBLIC "-//W3C//DTD SVG 20010904//EN"
 "http://www.w3.org/TR/2001/REC-SVG-20010904/DTD/svg10.dtd">
<svg version="1.0" xmlns="http://www.w3.org/2000/svg"
 width="574.000000pt" height="259.000000pt" viewBox="0 0 574.000000 259.000000"
 preserveAspectRatio="xMidYMid meet">

<g transform="translate(0.000000,259.000000) scale(0.100000,-0.100000)"
fill="#000000" stroke="none">
<path d="M1218 2282 l-487 -296 22 -41 22 -40 163 -3 162 -2 0 -180 c0 -99 2
-180 5 -180 3 0 32 14 65 30 l60 30 2 258 3 257 245 148 c135 81 251 145 259
142 8 -3 119 -71 247 -151 l234 -146 0 -132 -1 -131 -374 -230 c-239 -147
-375 -236 -375 -246 0 -9 5 -30 11 -48 l11 -31 213 0 212 0 7 -38 c3 -20 6
-49 6 -64 0 -36 -10 -36 178 7 22 5 22 7 22 189 l0 184 261 162 c143 89 268
164 277 168 10 3 23 12 30 19 28 27 103 65 118 59 9 -3 161 -95 339 -203 l323
-196 7 -344 c4 -189 4 -347 1 -350 -4 -4 -84 6 -179 21 -296 47 -646 86 -884
98 -50 3 -52 2 -57 -26 -3 -16 -6 -50 -6 -76 l0 -47 278 -6 c277 -6 557 -29
854 -68 87 -11 162 -18 168 -14 6 4 10 99 10 261 l0 255 219 -7 219 -7 32 63
c25 50 29 65 18 71 -7 5 -311 191 -674 414 l-661 405 -132 -81 -131 -81 -418
261 c-230 143 -423 261 -428 260 -5 0 -228 -134 -496 -297z"/>
<path d="M1630 2045 l0 -55 60 0 60 0 0 55 0 55 -60 0 -60 0 0 -55z"/>
<path d="M1770 2045 l0 -55 55 0 55 0 0 55 0 55 -55 0 -55 0 0 -55z"/>
<path d="M1630 1915 l0 -55 60 0 60 0 0 55 0 55 -60 0 -60 0 0 -55z"/>
<path d="M1770 1915 l0 -55 49 0 c46 0 49 1 55 31 15 74 12 79 -49 79 l-55 0
0 -55z"/>
<path d="M2600 1580 l0 -110 100 0 100 0 0 110 0 110 -100 0 -100 0 0 -110z"/>
<path d="M2840 1580 l0 -110 115 0 115 0 0 110 0 110 -115 0 -115 0 0 -110z"/>
<path d="M2953 1433 l-113 -4 0 -104 0 -105 115 0 115 0 0 110 c0 61 -1 109
-2 108 -2 -1 -54 -4 -115 -5z"/>
<path d="M2600 1325 l0 -105 100 0 100 0 0 105 0 105 -100 0 -100 0 0 -105z"/>
<path d="M20 1295 c-36 -44 64 -199 245 -381 257 -259 464 -394 613 -400 59
-3 67 0 110 33 26 20 79 51 118 71 l71 35 -9 41 c-6 23 -8 83 -5 134 3 50 4
92 2 92 -2 0 -41 -12 -85 -26 -45 -14 -83 -24 -84 -22 -1 2 -8 46 -14 99 -14
117 -45 220 -77 256 -24 28 -24 28 -44 8 -28 -29 -50 -113 -63 -246 l-11 -117
-61 52 c-253 214 -551 384 -677 386 -9 0 -22 -7 -29 -15z"/>
<path d="M1640 999 c-126 -11 -303 -38 -312 -47 -21 -21 -34 -242 -14 -242 2
0 72 18 157 39 192 49 561 100 722 101 25 0 27 3 27 43 0 23 4 59 9 80 l9 37
-252 -1 c-138 -1 -294 -6 -346 -10z"/>
<path d="M1510 415 l0 -235 -45 0 -45 0 0 65 c0 63 -1 65 -25 65 -26 0 -26 0
-23 -82 l3 -83 90 0 90 0 3 253 2 252 -25 0 -25 0 0 -235z"/>
<path d="M2020 555 l0 -95 -48 0 c-38 0 -53 -5 -70 -23 -20 -21 -22 -34 -22
-138 0 -153 4 -159 110 -157 l80 1 0 253 0 254 -25 0 c-25 0 -25 0 -25 -95z
m0 -249 l0 -113 -31 -7 c-52 -10 -59 4 -59 113 0 108 6 121 57 121 l33 0 0
-114z"/>
<path d="M2530 395 l0 -255 25 0 25 0 0 125 0 125 60 0 60 0 0 -125 0 -125 25
0 25 0 0 255 0 255 -25 0 -25 0 0 -110 0 -110 -60 0 -60 0 0 110 0 110 -25 0
-25 0 0 -255z"/>
<path d="M2940 395 c0 -248 1 -255 20 -255 19 0 20 7 20 255 0 248 -1 255 -20
255 -19 0 -20 -7 -20 -255z"/>
<path d="M3060 395 c0 -248 1 -255 20 -255 19 0 20 7 20 255 0 248 -1 255 -20
255 -19 0 -20 -7 -20 -255z"/>
<path d="M3310 395 l0 -255 25 0 25 0 0 125 0 125 60 0 60 0 0 -125 0 -125 25
0 25 0 0 255 0 255 -25 0 -25 0 0 -110 0 -110 -60 0 -60 0 0 110 0 110 -25 0
-25 0 0 -255z"/>
<path d="M2820 560 c0 -23 4 -30 20 -30 16 0 20 7 20 30 0 23 -4 30 -20 30
-16 0 -20 -7 -20 -30z"/>
<path d="M4750 510 c0 -43 -3 -50 -20 -50 -13 0 -20 -7 -20 -20 0 -13 7 -20
20 -20 18 0 20 -8 22 -137 l3 -138 48 -3 c42 -3 47 -1 47 17 0 16 -6 21 -25
21 l-25 0 0 120 0 120 25 0 c18 0 25 5 25 20 0 15 -7 20 -25 20 -23 0 -25 3
-25 50 0 47 -2 50 -25 50 -23 0 -25 -3 -25 -50z"/>
<path d="M1647 453 c-4 -3 -7 -21 -7 -40 0 -26 4 -33 20 -33 13 0 20 7 20 20
0 17 7 20 45 20 l45 0 0 -45 0 -45 -58 0 c-32 0 -63 -5 -70 -12 -13 -13 -16
-145 -4 -165 6 -9 36 -12 95 -12 l87 2 0 146 c0 101 -4 151 -12 159 -13 13
-149 17 -161 5z m123 -213 c0 -49 -1 -50 -29 -50 -16 0 -36 -3 -45 -6 -13 -5
-16 3 -16 50 l0 56 45 0 45 0 0 -50z"/>
<path d="M2152 448 c-8 -8 -12 -56 -12 -148 0 -92 4 -140 12 -148 7 -7 41 -12
85 -12 80 0 93 10 93 69 0 26 -4 31 -25 31 -21 0 -25 -5 -25 -30 0 -29 -2 -30
-45 -30 l-45 0 0 55 0 54 68 3 67 3 3 62 c4 94 -4 103 -91 103 -44 0 -78 -5
-85 -12z m128 -73 l0 -45 -45 0 -45 0 0 45 0 45 45 0 45 0 0 -45z"/>
<path d="M2820 300 c0 -153 1 -160 20 -160 19 0 20 7 20 160 0 153 -1 160 -20
160 -19 0 -20 -7 -20 -160z"/>
<path d="M3612 448 c-18 -18 -17 -282 2 -297 9 -8 43 -11 93 -9 l78 3 0 155 0
155 -80 3 c-54 2 -84 -1 -93 -10z m128 -148 l0 -120 -45 0 -45 0 0 120 0 120
45 0 45 0 0 -120z"/>
<path d="M3850 298 l0 -158 25 0 25 0 0 129 0 130 43 8 42 9 3 -138 3 -138 24
0 25 0 0 130 0 130 28 5 c68 15 62 27 62 -126 l0 -139 25 0 25 0 0 148 c0 102
-4 152 -12 160 -14 14 -61 16 -105 3 -18 -5 -35 -6 -38 -1 -3 4 -43 8 -90 7
l-85 -1 0 -158z"/>
<path d="M4252 448 c-17 -17 -17 -279 0 -296 7 -7 41 -12 85 -12 80 0 93 10
93 69 0 26 -4 31 -25 31 -21 0 -25 -5 -25 -30 0 -29 -2 -30 -45 -30 l-45 0 0
55 0 54 68 3 67 3 3 62 c4 94 -4 103 -91 103 -44 0 -78 -5 -85 -12z m128 -73
l0 -45 -45 0 -45 0 0 45 0 45 45 0 45 0 0 -45z"/>
<path d="M4502 448 c-7 -7 -12 -31 -12 -54 0 -40 4 -46 64 -96 55 -45 65 -58
65 -85 1 -32 0 -33 -39 -33 -39 0 -40 1 -40 35 0 31 -3 35 -25 35 -23 0 -25
-4 -25 -43 0 -24 5 -48 12 -55 16 -16 140 -16 156 0 7 7 12 33 12 59 0 47 -2
49 -65 101 -51 42 -65 59 -65 81 0 25 3 27 40 27 38 0 40 -2 40 -30 0 -25 4
-30 25 -30 22 0 25 4 25 38 0 53 -13 62 -90 62 -38 0 -71 -5 -78 -12z"/>
<path d="M4917 453 c-4 -3 -7 -21 -7 -40 0 -26 4 -33 20 -33 13 0 20 7 20 20
0 17 7 20 45 20 l45 0 0 -45 0 -45 -58 0 c-32 0 -63 -5 -70 -12 -13 -13 -16
-145 -4 -165 6 -9 36 -12 95 -12 l87 2 0 146 c0 101 -4 151 -12 159 -13 13
-149 17 -161 5z m123 -213 c0 -49 -1 -50 -29 -50 -16 0 -36 -3 -45 -6 -13 -5
-16 3 -16 50 l0 56 45 0 45 0 0 -50z"/>
<path d="M5140 453 c0 -5 16 -77 36 -161 36 -150 36 -154 21 -213 l-15 -59 24
0 c13 0 24 1 24 3 1 1 25 99 54 217 50 203 52 215 34 218 -11 2 -22 1 -25 -2
-3 -3 -16 -53 -28 -111 -13 -59 -25 -109 -28 -111 -4 -5 -47 186 -47 211 0 9
-10 15 -25 15 -14 0 -25 -3 -25 -7z"/>
<path d="M5402 448 c-7 -7 -12 -31 -12 -54 0 -40 4 -46 64 -96 55 -45 65 -58
65 -85 1 -32 0 -33 -39 -33 -39 0 -40 1 -40 35 0 31 -3 35 -25 35 -23 0 -25
-4 -25 -43 0 -24 5 -48 12 -55 16 -16 140 -16 156 0 7 7 12 33 12 59 0 47 -2
49 -65 101 -51 42 -65 59 -65 81 0 25 3 27 40 27 38 0 40 -2 40 -30 0 -25 4
-30 25 -30 22 0 25 4 25 38 0 53 -13 62 -90 62 -38 0 -71 -5 -78 -12z"/>
</g>
</svg>
